<svg width="1280" height="760" viewBox="0 0 1280 760" fill="none" xmlns="http://www.w3.org/2000/svg">
  <rect width="1280" height="760" fill="#07111f"/>
  <circle cx="1070" cy="120" r="230" fill="#36d7ff" opacity="0.16"/>
  <circle cx="180" cy="650" r="260" fill="#a879ff" opacity="0.16"/>
  <rect x="54" y="44" width="1172" height="672" rx="34" fill="#0d182b" stroke="#263a55" stroke-width="2"/>
  <text x="92" y="106" fill="#36d7ff" font-family="Inter, Arial" font-size="18" font-weight="800" letter-spacing="4">LIVE EMERGENCY TRIAGE</text>
  <text x="92" y="180" fill="#eef7ff" font-family="Inter, Arial" font-size="68" font-weight="800">Hospital Priority Queue</text>
  <text x="94" y="226" fill="#90a5bd" font-family="Inter, Arial" font-size="24">Interactive patient triage dashboard with severity sorting and doctor management.</text>
  <rect x="902" y="92" width="260" height="92" rx="24" fill="#122642" stroke="#284461"/>
  <circle cx="940" cy="138" r="11" fill="#43e89d"/>
  <text x="968" y="134" fill="#eef7ff" font-family="Inter, Arial" font-size="22" font-weight="800">Maya Hassan</text>
  <text x="968" y="160" fill="#90a5bd" font-family="Inter, Arial" font-size="15">Next patient</text>
  <rect x="92" y="282" width="232" height="116" rx="24" fill="#101f36" stroke="#263a55"/>
  <rect x="352" y="282" width="232" height="116" rx="24" fill="#101f36" stroke="#263a55"/>
  <rect x="612" y="282" width="232" height="116" rx="24" fill="#101f36" stroke="#263a55"/>
  <rect x="872" y="282" width="232" height="116" rx="24" fill="#253a7e" stroke="#4d6cff"/>
  <text x="118" y="324" fill="#90a5bd" font-family="Inter, Arial" font-size="18">Waiting Patients</text>
  <text x="118" y="370" fill="#eef7ff" font-family="Inter, Arial" font-size="42" font-weight="800">3</text>
  <text x="378" y="324" fill="#90a5bd" font-family="Inter, Arial" font-size="18">Critical Cases</text>
  <text x="378" y="370" fill="#eef7ff" font-family="Inter, Arial" font-size="42" font-weight="800">1</text>
  <text x="638" y="324" fill="#90a5bd" font-family="Inter, Arial" font-size="18">Doctors Online</text>
  <text x="638" y="370" fill="#eef7ff" font-family="Inter, Arial" font-size="42" font-weight="800">2</text>
  <text x="898" y="324" fill="#cfd8ff" font-family="Inter, Arial" font-size="18">Queue Health</text>
  <text x="898" y="370" fill="#eef7ff" font-family="Inter, Arial" font-size="38" font-weight="800">Critical</text>
  <rect x="92" y="438" width="406" height="214" rx="28" fill="#101f36" stroke="#263a55"/>
  <text x="124" y="484" fill="#36d7ff" font-family="Inter, Arial" font-size="14" font-weight="800" letter-spacing="3">PATIENT INTAKE</text>
  <text x="124" y="528" fill="#eef7ff" font-family="Inter, Arial" font-size="32" font-weight="800">Add Patient</text>
  <rect x="124" y="562" width="342" height="48" rx="14" fill="#182941" stroke="#314760"/>
  <text x="146" y="593" fill="#90a5bd" font-family="Inter, Arial" font-size="17">Patient name, age, severity</text>
  <rect x="532" y="438" width="596" height="214" rx="28" fill="#101f36" stroke="#263a55"/>
  <text x="564" y="484" fill="#36d7ff" font-family="Inter, Arial" font-size="14" font-weight="800" letter-spacing="3">PRIORITY SORTED</text>
  <text x="564" y="528" fill="#eef7ff" font-family="Inter, Arial" font-size="32" font-weight="800">Patient Queue</text>
  <rect x="564" y="558" width="500" height="58" rx="18" fill="#132541" stroke="#2a4261"/>
  <rect x="564" y="558" width="6" height="58" rx="3" fill="#ff5d73"/>
  <text x="588" y="583" fill="#eef7ff" font-family="Inter, Arial" font-size="19" font-weight="800">1. Maya Hassan</text>
  <text x="588" y="606" fill="#90a5bd" font-family="Inter, Arial" font-size="14">Age 42 - Critical 9/10</text>
  <rect x="920" y="578" width="106" height="18" rx="9" fill="#ff5d73" opacity="0.85"/>
</svg>
